<?xml version="1.0" encoding="UTF-8"?>
<svg width="16px" height="16px" viewBox="0 0 16 16" version="1.1" xmlns="http://www.w3.org/2000/svg" xmlns:xlink="http://www.w3.org/1999/xlink">
    <title>-mockplus-</title>
    <g id="信用联合奖惩系统" stroke="none" stroke-width="1"  fill-rule="evenodd">
        <g id="图标1102补充" transform="translate(-96.000000, -19.000000)" fill-rule="nonzero">
            <g id="图标/奖惩结果反馈子系统" transform="translate(96.000000, 19.000000)">
                <rect id="矩形"  opacity="0" x="0" y="0" width="16" height="16"></rect>
                <path d="M8,1 C4.13400391,1 1,4.13400391 1,8 C1,11.8659961 4.13400391,15 8,15 C11.8659961,15 15,11.8659961 15,8 C15,4.13400391 11.8659961,1 8,1 Z M8.66353711,11.1198945 C8.66353711,11.3611758 8.46612891,11.558584 8.22484766,11.558584 L7.77513867,11.558584 C7.53385742,11.558584 7.33644922,11.3611758 7.33644922,11.1198945 L7.33644922,10.7194863 C7.33644922,10.4782187 7.53385742,10.2808105 7.77513867,10.2808105 L8.22484766,10.2808105 C8.46612891,10.2808105 8.66353711,10.4782187 8.66353711,10.7194863 L8.66353711,11.1198945 Z M8.7817168,4.81895117 L8.49609766,9.14439062 C8.4835332,9.33463477 8.28913281,9.48369922 8.05358008,9.48369922 L7.94643359,9.48369922 C7.71086719,9.48369922 7.5164668,9.33464844 7.50391602,9.14439062 L7.21829688,4.81895117 C7.20474805,4.61379102 7.40679102,4.44141602 7.66082813,4.44141602 L8.33919922,4.44141602 C8.59322266,4.44141602 8.79525195,4.61377734 8.7817168,4.81895117 Z" id="形状" ></path>
            </g>
        </g>
    </g>
</svg>