<?xml version="1.0" encoding="UTF-8"?>
<svg width="16px" height="16px" viewBox="0 0 16 16" version="1.1" xmlns="http://www.w3.org/2000/svg" xmlns:xlink="http://www.w3.org/1999/xlink">
    <title>-mockplus-</title>
    <g id="信用联合奖惩系统" stroke="none" stroke-width="1"  fill-rule="evenodd">
        <g id="图标1102补充" transform="translate(-126.000000, -19.000000)"  fill-rule="nonzero">
            <g id="图标/分析评估子系统" transform="translate(126.000000, 19.000000)">
                <rect id="矩形" opacity="0" x="0" y="0" width="16" height="16"></rect>
                <path d="M3.26,2 C2.66190854,2.0027373 2.1777373,2.48690854 2.175,3.085 L2.175,12.915 C2.175,13.514229 2.66077105,14 3.26,14 L13.09,14 C13.6880915,13.9972627 14.1722627,13.5130915 14.175,12.915 L14.175,3.085 C14.1722627,2.48690854 13.6880915,2.0027373 13.09,2 L3.26,2 Z M9.72,9.32 C9.62515133,9.42593018 9.48968816,9.48646777 9.3475,9.48646777 C9.20531184,9.48646777 9.06984867,9.42593018 8.975,9.32 L7.285,7.57 L5.07,9.845 C4.97515133,9.95093018 4.83968816,10.0114678 4.6975,10.0114678 C4.55531184,10.0114678 4.41984867,9.95093018 4.325,9.845 C4.11737569,9.62838394 4.11737569,9.28661606 4.325,9.07 L6.91,6.415 C7.00484867,6.30906982 7.14031184,6.24853223 7.2825,6.24853223 C7.42468816,6.24853223 7.56015133,6.30906982 7.655,6.415 L9.34,8.165 L11.265,6.165 C11.3924735,6.02866984 11.5852667,5.97468774 11.765,6.025 C11.9495217,6.07759748 12.0922757,6.22415828 12.14,6.41 C12.1870439,6.59743365 12.1341254,6.79587816 12,6.935 L9.72,9.32 Z" id="形状"></path>
            </g>
        </g>
    </g>
</svg>