<?xml version="1.0" encoding="UTF-8"?>
<svg width="16px" height="16px" viewBox="0 0 16 16" version="1.1" xmlns="http://www.w3.org/2000/svg" xmlns:xlink="http://www.w3.org/1999/xlink">
    <title>-mockplus-</title>
    <g id="信用联合奖惩系统" stroke="none" stroke-width="1" fill-rule="evenodd">
        <g id="图标1102补充" transform="translate(-40.000000, -19.000000)" fill-rule="nonzero">
            <g id="图标/奖惩对象管理子系统" transform="translate(40.000000, 19.000000)">
                <rect id="矩形" opacity="0" x="0" y="0" width="16" height="16"></rect>
                <path d="M9.72628572,6.84457142 L13.3102857,6.84457142 C13.5419165,6.84438644 13.7507457,6.98405035 13.8390335,7.19819544 C13.9273214,7.41234053 13.8776009,7.65859949 13.7131429,7.82171428 L5.676,15.8114286 C5.49517792,15.9915259 5.21685413,16.0298849 4.9940561,15.9054153 C4.77125807,15.7809456 4.65800742,15.5238273 4.71657142,15.2754286 L6.15885714,9.13142858 L2.57142858,9.13142858 C2.3399018,9.13138189 2.13128472,8.99163318 2.04314353,8.77754025 C1.95500235,8.56344732 2.00475884,8.31732727 2.16914286,8.15428572 L10.2251429,0.165714281 C10.4062605,-0.0136653722 10.6842888,-0.0513848982 10.9066522,0.0732553002 C11.1290156,0.197895499 11.2419292,0.454747594 11.1834286,0.702857141 L9.72628572,6.84457142 L9.72628572,6.84457142 Z" id="路径" ></path>
            </g>
        </g>
    </g>
</svg>