<?xml version="1.0" encoding="UTF-8"?>
<svg width="16px" height="16px" viewBox="0 0 16 16" version="1.1" xmlns="http://www.w3.org/2000/svg" xmlns:xlink="http://www.w3.org/1999/xlink">
    <title>-mockplus-</title>
    <g id="信用联合奖惩系统" stroke="none" stroke-width="1" fill-rule="evenodd">
        <g id="图标1102补充" transform="translate(-156.000000, -19.000000)"  fill-rule="nonzero">
            <g id="图标/考核督办子系统" transform="translate(156.000000, 19.000000)">
                <rect id="矩形" opacity="0" x="0" y="0" width="16" height="16"></rect>
                <path d="M13.2421875,1 C13.79375,1 14.2421875,1.4484375 14.2421875,2 L14.2421875,2 L14.2421875,14 C14.2421875,14.5515625 13.79375,15 13.2421875,15 L13.2421875,15 L2.7578125,15 C2.20625,15 1.7578125,14.5515625 1.7578125,14 L1.7578125,14 L1.7578125,2 C1.7578125,1.4484375 2.20625,1 2.7578125,1 L2.7578125,1 Z M6.040625,9.646875 L4.953125,10.734375 L4.615625,10.396875 C4.4203125,10.2015625 4.103125,10.2015625 3.9078125,10.396875 C3.7125,10.5921875 3.7125,10.909375 3.9078125,11.1046875 L4.615625,11.8125 C4.8109375,12.0078125 5.128125,12.0078125 5.3234375,11.8125 C5.359375,11.7765625 5.3890625,11.7359375 5.4125,11.6921875 L6.7484375,10.35625 C6.94375,10.1578125 6.94375,9.8421875 6.7484375,9.646875 C6.553125,9.4515625 6.2359375,9.4515625 6.040625,9.646875 Z M11.63125,10.21875 L7.8765625,10.21875 C7.53125,10.21875 7.25,10.4421875 7.25,10.71875 C7.25,10.9953125 7.5296875,11.21875 7.8765625,11.21875 L11.6328125,11.21875 C11.978125,11.21875 12.259375,10.9953125 12.259375,10.71875 C12.2578125,10.4421875 11.978125,10.21875 11.63125,10.21875 Z M6.040625,6.6625 L4.96875,7.734375 L4.615625,7.38125 C4.4203125,7.1859375 4.103125,7.1859375 3.9078125,7.38125 C3.7125,7.5765625 3.7125,7.89375 3.9078125,8.0890625 L4.615625,8.796875 C4.8109375,8.9921875 5.128125,8.9921875 5.3234375,8.796875 L6.7484375,7.371875 C6.94375,7.1734375 6.94375,6.8578125 6.7484375,6.6625 C6.553125,6.4671875 6.2359375,6.4671875 6.040625,6.6625 Z M11.63125,7.234375 L7.8765625,7.234375 C7.53125,7.234375 7.25,7.4578125 7.25,7.734375 C7.25,8.0109375 7.5296875,8.234375 7.8765625,8.234375 L11.6328125,8.234375 C11.978125,8.234375 12.259375,8.0109375 12.259375,7.734375 C12.2578125,7.4578125 11.978125,7.234375 11.63125,7.234375 Z M6.0171875,3.646875 L4.9453125,4.71875 L4.5921875,4.365625 C4.396875,4.1703125 4.0796875,4.1703125 3.884375,4.365625 C3.6890625,4.5609375 3.6890625,4.878125 3.884375,5.0734375 L4.5921875,5.7796875 C4.7875,5.975 5.1046875,5.975 5.3,5.7796875 L6.725,4.3546875 C6.9203125,4.159375 6.9203125,3.8421875 6.725,3.646875 C6.5296875,3.4515625 6.2125,3.4515625 6.0171875,3.646875 Z M11.609375,4.21875 L7.853125,4.21875 C7.5078125,4.21875 7.2265625,4.4421875 7.2265625,4.71875 C7.2265625,4.9953125 7.50625,5.21875 7.853125,5.21875 L11.609375,5.21875 C11.9546875,5.21875 12.2359375,4.9953125 12.2359375,4.71875 C12.2359375,4.4421875 11.95625,4.21875 11.609375,4.21875 Z" id="形状结合"></path>
            </g>
        </g>
    </g>
</svg>